<svg width="76" height="44" xmlns="http://www.w3.org/2000/svg"><defs><linearGradient x1="50%" y1="0%" x2="50%" y2="100%" id="b"><stop stop-color="#3D7EEB" offset="0%"/><stop stop-color="#3D7EEB" stop-opacity=".241" offset="100%"/></linearGradient><linearGradient x1="50%" y1="0%" x2="50%" y2="100%" id="a"><stop stop-color="#A0C4FF" offset="0%"/><stop stop-color="#3D7EEB" offset="100%"/></linearGradient><linearGradient x1="50%" y1="0%" x2="50%" y2="100%" id="d"><stop stop-color="#3D7EEB" offset="0%"/><stop stop-color="#3D7EEB" stop-opacity=".241" offset="100%"/></linearGradient><linearGradient x1="50%" y1="0%" x2="50%" y2="100%" id="c"><stop stop-color="#A0C4FF" offset="0%"/><stop stop-color="#3D7EEB" offset="100%"/></linearGradient><linearGradient x1="50%" y1="0%" x2="50%" y2="100%" id="f"><stop stop-color="#3D7EEB" offset="0%"/><stop stop-color="#3D7EEB" stop-opacity=".241" offset="100%"/></linearGradient><linearGradient x1="50%" y1="0%" x2="50%" y2="100%" id="e"><stop stop-color="#A0C4FF" offset="0%"/><stop stop-color="#3D7EEB" offset="100%"/></linearGradient><linearGradient x1="50%" y1="0%" x2="50%" y2="100%" id="h"><stop stop-color="#3D7EEB" offset="0%"/><stop stop-color="#3D7EEB" stop-opacity=".241" offset="100%"/></linearGradient><linearGradient x1="50%" y1="0%" x2="50%" y2="100%" id="g"><stop stop-color="#A0C4FF" offset="0%"/><stop stop-color="#3D7EEB" offset="100%"/></linearGradient></defs><g fill="none" fill-rule="evenodd"><path stroke="#404A5E" stroke-linecap="square" d="M10.052 37.652h64.524M10.052 1.371v36.281"/><path d="M5.792 34.83c.379 0 .664.165.86.503.17.285.254.668.254 1.148 0 .48-.085.863-.254 1.148-.196.333-.481.502-.86.502-.383 0-.668-.169-.86-.502-.17-.285-.254-.668-.254-1.148 0-.48.085-.863.254-1.148a.924.924 0 01.86-.502zm0 .312c-.285 0-.49.151-.615.458-.089.214-.133.507-.133.88 0 .37.044.664.133.882.125.302.33.458.615.458s.49-.156.615-.458c.089-.218.138-.512.138-.881 0-.374-.049-.667-.138-.88-.125-.308-.33-.459-.615-.459zM2.696 20.065h1.849v.325h-1.55l-.108 1.063h.018a.827.827 0 01.343-.24c.125-.053.258-.076.405-.076.303 0 .548.094.736.285.187.196.285.463.285.805 0 .32-.116.583-.343.788-.214.19-.481.289-.793.289-.281 0-.522-.076-.718-.227a.913.913 0 01-.365-.69h.36c.019.2.099.356.241.463.125.093.29.142.486.142a.76.76 0 00.553-.213.744.744 0 00.218-.547c0-.254-.071-.45-.205-.588-.13-.142-.312-.209-.544-.209a.816.816 0 00-.405.098.63.63 0 00-.285.285h-.348l.17-1.753zm3.727-.062c.379 0 .664.165.86.503.17.284.254.667.254 1.147s-.085.863-.254 1.148c-.196.334-.481.503-.86.503-.383 0-.668-.17-.86-.503-.169-.285-.254-.667-.254-1.148 0-.48.085-.863.254-1.147a.924.924 0 01.86-.503zm0 .311c-.285 0-.49.152-.615.459-.089.213-.133.507-.133.88 0 .37.044.663.133.881.125.303.33.458.615.458s.49-.155.615-.458c.09-.218.138-.511.138-.88 0-.374-.049-.668-.138-.881-.125-.307-.33-.459-.615-.459zM1.025 4.496h.285v3.176H.945v-2.73c-.2.204-.45.346-.749.435v-.365c.143-.04.294-.102.446-.19.151-.099.276-.206.383-.326zm2.284-.062c.379 0 .664.165.86.503.17.284.254.667.254 1.147s-.085.863-.254 1.148c-.196.334-.481.503-.86.503-.383 0-.668-.17-.86-.503-.17-.285-.254-.667-.254-1.148 0-.48.085-.863.254-1.147a.924.924 0 01.86-.503zm0 .311c-.285 0-.49.152-.615.459-.089.213-.134.507-.134.88 0 .37.045.663.134.881.125.303.33.458.615.458s.49-.155.615-.458c.089-.218.138-.511.138-.88 0-.374-.05-.668-.138-.881-.125-.307-.33-.459-.615-.459zm2.859-.31c.379 0 .664.164.86.502.169.284.254.667.254 1.147s-.085.863-.254 1.148c-.196.334-.481.503-.86.503-.383 0-.668-.17-.86-.503-.17-.285-.254-.667-.254-1.148 0-.48.085-.863.254-1.147a.924.924 0 01.86-.503zm0 .31c-.285 0-.49.152-.615.459-.09.213-.134.507-.134.88 0 .37.045.663.134.881.125.303.33.458.615.458s.49-.155.615-.458c.089-.218.138-.511.138-.88 0-.374-.05-.668-.138-.881-.125-.307-.33-.459-.615-.459z" fill="#E5E8EC" fill-rule="nonzero"/><path stroke="url(#a)" fill="url(#b)" transform="matrix(-1 0 0 1 69.06 1)" d="M32.431 27.19h4.198v8.638h-4.198z"/><path stroke="url(#c)" fill="url(#d)" transform="matrix(-1 0 0 1 94.307 1)" d="M45.054 13.103h4.198v22.724h-4.198z"/><path stroke="url(#e)" fill="url(#f)" transform="matrix(-1 0 0 1 43.812 1)" d="M19.807 15.328h4.198v20.5h-4.198z"/><path stroke="url(#g)" fill="url(#h)" transform="matrix(-1 0 0 1 119.554 1)" d="M57.678 6.431h4.198v29.397h-4.198z"/><path d="M21.301 40.083h.424l1.252 3.176h-.397l-.338-.89H20.78l-.338.89h-.392l1.251-3.176zm-.405 1.979h1.23l-.602-1.588h-.018l-.61 1.588zM32.994 40.083h1.421c.294 0 .53.07.704.213.17.142.254.338.254.587a.771.771 0 01-.142.463.845.845 0 01-.388.253c.21.036.37.125.486.258a.756.756 0 01.178.516c0 .312-.111.543-.33.694-.187.125-.445.192-.77.192h-1.413v-3.176zm.365.306v1.081h.967c.223 0 .392-.049.508-.137a.503.503 0 00.178-.414c0-.178-.058-.312-.173-.4-.116-.09-.286-.13-.508-.13h-.972zm0 1.384v1.179h1.016c.223 0 .397-.045.53-.125.156-.098.237-.253.237-.458 0-.205-.072-.356-.205-.454-.13-.098-.317-.142-.562-.142H33.36zM46.99 40.02c.352 0 .65.094.891.28.24.187.383.44.428.757h-.352a.815.815 0 00-.339-.534 1.081 1.081 0 00-.632-.178c-.37 0-.655.129-.856.387-.187.24-.28.556-.28.952 0 .396.089.712.276.943.196.245.476.37.85.37.255 0 .469-.068.647-.201.187-.142.316-.351.378-.627h.352c-.07.369-.236.658-.499.863-.245.191-.539.289-.877.289-.495 0-.874-.165-1.136-.49-.241-.293-.357-.676-.357-1.147 0-.472.12-.859.366-1.161.267-.338.65-.503 1.14-.503zM58.242 40.083h1.14c.504 0 .882.142 1.14.435.237.267.357.654.357 1.153 0 .489-.129.876-.383 1.152-.267.289-.65.436-1.15.436h-1.104v-3.176zm.365.315v2.545h.677c.415 0 .726-.111.936-.33.196-.213.298-.529.298-.942 0-.427-.093-.743-.276-.948-.196-.218-.499-.325-.918-.325h-.717z" fill="#BECCD7" fill-rule="nonzero"/></g></svg>