<svg width="45" height="35" xmlns="http://www.w3.org/2000/svg" xmlns:xlink="http://www.w3.org/1999/xlink"><defs><linearGradient x1="64.529%" y1="76.146%" x2="167.631%" y2="97.843%" id="b"><stop stop-color="#279BF4" offset="0%"/><stop stop-color="#45E1F0" offset="100%"/></linearGradient><linearGradient x1="81.289%" y1="71.507%" x2="120.622%" y2="107.028%" id="c"><stop stop-color="#0F6BCF" offset="0%"/><stop stop-color="#014FBE" offset="32%"/><stop stop-color="#3888E8" offset="76%"/><stop stop-color="#45E1F0" offset="100%"/></linearGradient><linearGradient x1="232.36%" y1="55.318%" x2="99.494%" y2="183.871%" id="d"><stop stop-color="#00B1D2" offset="0%"/><stop stop-color="#0DF" offset="20%"/><stop stop-color="#29AFE1" offset="48%"/><stop stop-color="#3A85E7" offset="75%"/><stop stop-color="#4D55ED" offset="100%"/></linearGradient><linearGradient x1="161.048%" y1="36.689%" x2="220.149%" y2="42.886%" id="e"><stop stop-color="#2E8AE7" offset="0%"/><stop stop-color="#18C0E1" offset="100%"/></linearGradient><linearGradient x1="-13.531%" y1="99.37%" x2="-13.047%" y2="198.323%" id="f"><stop stop-color="#279BF4" offset="0%"/><stop stop-color="#45E1F0" offset="100%"/></linearGradient><linearGradient x1="60.165%" y1=".389%" x2="36.152%" y2="110.001%" id="g"><stop stop-color="#F9FFFF" offset=".087%"/><stop stop-color="#F0FFFD" stop-opacity="0" offset="100%"/></linearGradient><linearGradient x1="0%" y1="38.835%" x2="107.442%" y2="65.296%" id="h"><stop stop-color="#F9FFFF" offset="0%"/><stop stop-color="#F0FFFD" stop-opacity="0" offset="100%"/></linearGradient><linearGradient x1="89.865%" y1="-11.155%" x2="24.863%" y2="100%" id="i"><stop stop-color="#C8C8C8" stop-opacity="0" offset="0%"/><stop stop-color="#F0FFFD" offset="100%"/></linearGradient><ellipse id="a" cx="9.474" cy="9.624" rx="9.474" ry="9.624"/><mask id="j" maskContentUnits="userSpaceOnUse" maskUnits="objectBoundingBox" x="0" y="0" width="18.947" height="19.248" fill="#fff"><use xlink:href="#a"/></mask></defs><g fill="none" fill-rule="evenodd"><g fill="#4EDDFF" fill-rule="nonzero"><path d="M.959 10.82L.4 11.884c0 .522.17.696.322.679.152-.017.626.853.321.853-.304 0 0 .488-.592.488s-.287.54 0 .522c.288-.017.592 0 .61.157v.696c0 .174.168.87.625.853.284-.002.557.11.761.314 0 0-.44.54-.27.714.169.174.456.156.456.33 0 .175-.304 0-.287.366.017.366.338 1.376 0 1.393-.338.018-.152-.348-.457-.33-.304.017-.287.19-.287.365 0 .174-.559 1.062 0 1.219.558.156.76.487.76.661 0 .175.627.854.779.836.152-.017.288-.191.592-.365.305.162.457.33.457.505 0 .174 0 .696.474.679.473-.018.456.156.625.679.267.382.638.673 1.066.835.61.157 1.692.105 1.692.453 0 .348 1.201.122 1.201.296s.152 0 .592-.366c.61.157 1.05.14 1.506.28.457.138.321.504.321.678.07.328.235.626.474.853.382.178.82.178 1.201 0 .288-.191.88-.557 1.912-1.131.44-.192.592-.192.592 0 0 .191.186 1.044.761.487.27-.213.514-.459.728-.731.294.346.508.757.626 1.201 0 .348.321.853.186 1.045-.136.191-1.015.905-1.455 1.271-.44.366-.423.888 0 .87.312.017.622-.055.896-.208.305 0 .457.33.474.679.017.348-.288.54-.135.696a3.8 3.8 0 001.691 1.15c.61.156.745 0 .728-.558v-.522h.592l.135-.523.153.175h1.2l.457.33.593-.191s.27-.888.88-.383c.608.505.744-.21.744 0 0 .209-.119 1.045.626 1.201a7.81 7.81 0 002.097 0l.322.68a.966.966 0 010 .696c-.278.13-.526.32-.728.557-.287.366-.558 1.062-.27 1.062.287 0 .913.314 1.048.14.136-.175 1.32-.75 1.455-1.098a.606.606 0 000-.696c-.473-.853-.626-1.201-.626-1.201s1.794.104 1.929-.262a5.132 5.132 0 011.167-1.097c.153 0-.152.175.897.14a4.204 4.204 0 002.622-1.55 6.15 6.15 0 001.303-1.445c.135-.348-.186-1.045.118-1.045.305 0 .88-.731 1.015-1.08.136-.348 1.015-1.253.694-1.74-.322-.488-.61-.506-.761-.488-.153.017.135-.348.135-.348s.287-.366.135-.523a.436.436 0 00-.304-.156l.287-.366a6.138 6.138 0 00-.947-1.532c-.778-.836-1.083-1.01-1.083-1.184 0-.174 1.878-1.985 1.692-2.334-.186-.348-1.353-.47-1.81-.452-.6.059-1.204.024-1.793-.105-.305-.156-.762-.487-.61-.505.153-.017.136-.522.576-.54.44-.017 1.167-.748 1.32-.922.152-.174.27-.714.727-.732.456-.017.321 1.028.338 1.376.017.348-.27.888.457.33a23.859 23.859 0 002.774-2.385 3.91 3.91 0 00.575-.888c.262.187.593.238.897.14.44-.192.27-.888.27-.888s-.152.174.728-.558c.88-.73 1.15-1.27.981-1.95V7.74a.56.56 0 00.462-.04.59.59 0 00.283-.378c.287-.366 1.116-2.664.812-2.647-.52.101-1.018.296-1.472.575-.313.24-.661.429-1.032.557a.516.516 0 01-.457-.505c0-.348-.169-.87-.473-.853-.305.017-1.337.226-1.692-.105a1.634 1.634 0 01-.322-1.027c0-.348-.49-1.201-.93-1.184a7.52 7.52 0 00-2.132-.418c-.477.082-.93.279-1.32.575 0 0-1.031.383-.727.557.305.174.61.157.61.505s-.711 1.08-.711 1.254c0 .174.152 0-.27.714a1.67 1.67 0 01-1.32.574l-.17-.522a3.082 3.082 0 00-.422.714 2.764 2.764 0 00-.271.714c0 .174-.27.888.321.853.592-.035 1.489-.227 1.794-.244a.993.993 0 01.609.157l-.576.696c-.575.54-.88.731-1.032.731-.152 0-.44.366-.727.558-.288.191-.305 0-.592.191a2.925 2.925 0 00-.575.54c-.24.095-.505.095-.745 0a1.568 1.568 0 00-.761-.488c-.575.714-.71 1.08-.406 1.237.305.156.744.139.457.505l-.694.766c-.152.174.17.522-.744.383a7.893 7.893 0 00-1.946-.087c-.744 0-.135.522-.727.557-.592.035-.744.383-1.489 0-.744-.383-2.098-.435-2.267-.784-.169-.348-.372-.209-1.133-.209s-1.692.244-1.946-.26a9.593 9.593 0 00-1.235-1.48 13.719 13.719 0 00-2.876-.924c.215-.38.353-.8.406-1.236 0-.348-.186-1.393-.642-1.375-.457.017-.745-.14-.762-.314-.017-.174-.169-.522-.169-.696 0-.174-.152-.174-.457-.157-1.167.749-1.691 1.114-1.691 1.289 0 .174 0 .522-.288.54-.288.017-.897 0-.897-.14s-.152-.174-.304-.33a1.05 1.05 0 01-.44.19L8.216 8.68H7.167s-.609-.522-.287.157c.166.388.166.83 0 1.219a1.553 1.553 0 01-.575.888c-.288.191-1.05-.14-1.185.226s-.44.192-.896 0c-.153 0-.288.192-.592.366-.305.174-1.185.226-1.202 0-.016-.227-.27-.244-.625-.227-.39-.33-.694-.313-.846-.487z"/><path d="M.959 10.82L.4 11.884c0 .522.17.696.322.679.152-.017.626.853.321.853-.304 0 0 .488-.592.488s-.287.54 0 .522c.288-.017.592 0 .61.157v.696c0 .174.168.87.625.853.284-.002.557.11.761.314 0 0-.44.54-.27.714.169.174.456.156.456.33 0 .175-.304 0-.287.366.017.366.338 1.376 0 1.393-.338.018-.152-.348-.457-.33-.304.017-.287.19-.287.365 0 .174-.559 1.062 0 1.219.558.156.76.487.76.661 0 .175.627.854.779.836.152-.017.288-.191.592-.365.305.162.457.33.457.505 0 .174 0 .696.474.679.473-.018.456.156.625.679.267.382.638.673 1.066.835.61.157 1.692.105 1.692.453 0 .348 1.201.122 1.201.296s.152 0 .592-.366c.61.157 1.05.14 1.506.28.457.138.321.504.321.678.07.328.235.626.474.853.382.178.82.178 1.201 0 .288-.191.88-.557 1.912-1.131.44-.192.592-.192.592 0 0 .191.186 1.044.761.487.27-.213.514-.459.728-.731.294.346.508.757.626 1.201 0 .348.321.853.186 1.045-.136.191-1.015.905-1.455 1.271-.44.366-.423.888 0 .87.312.017.622-.055.896-.208.305 0 .457.33.474.679.017.348-.288.54-.135.696a3.8 3.8 0 001.691 1.15c.61.156.745 0 .728-.558v-.522h.592l.135-.523.153.175h1.2l.457.33.593-.191s.27-.888.88-.383c.608.505.744-.21.744 0 0 .209-.119 1.045.626 1.201a7.81 7.81 0 002.097 0l.322.68a.966.966 0 010 .696c-.278.13-.526.32-.728.557-.287.366-.558 1.062-.27 1.062.287 0 .913.314 1.048.14.136-.175 1.32-.75 1.455-1.098a.606.606 0 000-.696c-.473-.853-.626-1.201-.626-1.201s1.794.104 1.929-.262a5.132 5.132 0 011.167-1.097c.153 0-.152.175.897.14 1.049-.035.897 0 1.336-.4.44-.401.44-.54-.186-1.045-.626-.505-.304-.157-1.2-.122-.897.034-.627-1.028-.796-1.358-.17-.331-.423-1.289-.27-1.289.152 0-.914-.313-.627-.679.288-.366 1.032-.209.88-.557-.152-.348.423-1.062.27-1.062a2.03 2.03 0 00.999-1.742c0-1.393-.474-.679-.626-.853-.152-.174.727-.905 0-1.74-.152-.175.88-.732-.49-1.376-.762-.314.744 0 .422-1.063-.152-.348 1.455-1.27 1.878-2.159.423-.888-.643-1.55-.643-1.74a2.518 2.518 0 01-.186-1.046c0-.174.305 0 .745.14.44.139.744.139.744 0 0-.14.88-.383 1.32-.575.44-.191.744-.383.727-.557-.017-.174-.49-.662-.49-.662s.152-.174-.17-.522c-.321-.348-.609-.157-.913-.314-.762-.313-.457-.33-.474-.679-.017-.348.372-.226.372-.365 0-.14.897-.21 1.032-.557.135-.349-1.049-.14-.761-.314.287-.174.744-.209.744-.383 0-.522-.304-.157-.169-.696 0-.174 0-.174-.152-.349-.153-.174.727-.73.727-.905 0-.174.288-.54.423-.714.135-.174.744.14.897 0 .152-.14.896 0 1.032-.209.135-.209-1.032.21-1.05 0 0-.696-1.522-.975-1.826-1.15-.305-.173.253-1.235 0-1.218-.254.018-.728-.33-1.032-.33-.193.133-.346.32-.44.54-.28.046-.54.18-.744.382-.44.54-.694 1.602-1.27 2.49-.135.348-1.048-.313-1.336 0-.287.313.474 1.027.339 1.376-.136.348-.119 1.218-.254 1.41a6.378 6.378 0 01-1.878 1.985 1.568 1.568 0 00-.761-.488c-.575.714-.71 1.08-.406 1.237.304.156.744.139.457.505l-.576.713c-.152.175.17.523-.744.384a7.893 7.893 0 00-1.929-.088c-.744 0-.135.523-.727.558-.592.034-.744.383-1.489 0-.744-.383-2.114-.296-2.284-.558-.169-.26-.456-.33-1.2-.296-.745.035-1.692.244-1.946-.26a9.562 9.562 0 00-1.286-1.429 13.719 13.719 0 00-2.876-.922c.214-.38.352-.8.406-1.237 0-.348-.186-1.393-.643-1.375-.456.017-.744-.14-.761-.314-.017-.174-.17-.522-.17-.696 0-.174-.151-.174-.456-.157-1.167.749-1.692 1.115-1.692 1.289 0 .174 0 .522-.287.54-.288.017-.897 0-.897-.14s-.152-.174-.304-.33a1.04 1.04 0 01-.44.104L7.895 8.192l-1.015.121s-.61-.505-.288.192c.166.388.166.83 0 1.219a1.553 1.553 0 01-.575.888c-.288.191-1.049-.14-1.184.226-.136.366-.44.192-.897 0-.152 0-.288.192-.592.366-.305.174-1.184.226-1.201 0-.017-.227-.338-.244-.592-.227a.795.795 0 01-.592-.156z"/><path d="M21.26 30.026l.152.174h1.2l.458.331.592-.191s.27-.888.88-.384c.608.505.744-.208.744 0 0 .21-.119 1.045.626 1.202a7.81 7.81 0 002.097 0l.322.679a.966.966 0 010 .696c-.278.131-.526.321-.728.558-.287.365-.558 1.062-.27 1.062.287 0 .913.313 1.049.139.135-.174 1.32-.749 1.454-1.097a.606.606 0 000-.696c-.473-.854-.625-1.202-.625-1.202s1.793.105 1.928-.261a5.132 5.132 0 011.167-1.097c.153 0-.152.174.897.14 1.049-.035.897 0 1.336-.401.44-.4.44-.54-.186-1.045-.626-.505-.304-.157-1.2-.122-.897.035-.627-1.027-.796-1.358-.169-.33-.474-1.027-.321-1.027.152 0-.914-.314-.626-.68.287-.365 1.032-.208.88-.556-.153-.349.422-1.063.27-1.063a2.03 2.03 0 00.998-1.74c0-1.394-.473-.68-.626-.854-.152-.174.373-2.803 0-1.741-.71 1.428.49 1.375-.88.731-.76-.313.305.331 0-.696 0 0-.625-1.028-1.217-.993-.305 0-.423 1.062-.694 1.741-.288.366.321.854 0 1.393-.321.54-.71 1.08-1.15 1.62-.44.54-1.354-.296-.914-.836l-1.15 1.445a9.104 9.104 0 01-1.134 2.142c-.44.54.186 1.393-.558 1.584-1.032.383 0 .174-.727.906-.44.54-.914-.662-1.49 0-.151.174-1.15 1.619-1.166 1.097-.017-.523-.305-.053-.593.4zM39.412 27.031c-.31.21-.664.341-1.032.383a2.6 2.6 0 00-.559 1.41c0 .697.322 1.028.626 1.028.305 0 .61.505.745-.383s.101-1.393.406-1.585c.304-.191.27-.522-.186-.853z"/><path d="M13.528 16.236s-.609-.157-.592.366V18.516c0 .523 0 .871.322 1.028.32.157.456.331.76.662.305.33-.27.714 0 .87.271.157.322.68.762.662h1.201l.914.313s.609.157.609.331c0 .174 1.184-.226 1.793 0 .609.227.744 0 .744-.383s-.321-1.027 0-1.045c.322-.017.474.68.914.662.44-.017 1.032-.383 1.049 0 .017.383-.136.348.457.331.592-.017.456.33.744-.383.287-.714.118-1.219.558-1.062a8.4 8.4 0 001.218.992c.61.331.745 0 1.692.279.947.278 1.201 0 1.201.296s0 1.393.338 1.375A2.86 2.86 0 0029.515 22c0-.348.102-1.741.39-1.741.287 0 0 .522 0-.522v-2.612c0-.348 1.031-.731.422-1.062a2.682 2.682 0 00-1.455-.418s-.896 0-.88.383c.017.383.474 1.027-.27 1.062a1.159 1.159 0 01-1.218-.644l-.288-.801c-.304 0-.44.365-.423.714 0 .696-.863 1.08-.88.731-.016-.348-.913-.662-.913-.662l.88-.73h-.897c-.358.08-.705.21-1.032.382 0 0-.27.888-.744 0a3.75 3.75 0 00-1.54-1.323s0-.697-.473-.68h-.745a2.01 2.01 0 01-1.472.75h-1.336c-.144.411-.482.72-.897.818a4.694 4.694 0 00-1.184.574h-1.049l.017.018zM33.372 15.435c.305 0 0 .174-.744.383-.305 0-.44.366-.423.714.017.348-.119.87 0 1.219.118.348-.744.383 0 .696.744.314.761.488.474.853v2.264l.76.662-.727.557c-.304 0-.44.365-.423.888 0 .87-.575.54-.575.54v.522s-1.32.749-.71 1.08c.609.33.457.504.473.678.017.175-.27.889.322 1.028.592.14-.27.888-.27.888s-2.082.261-1.93.61c.153.347-1.031.382-1.014 1.079 0 .348.304.33 1.048 0 0 1.219.796 1.358 1.083 1.01a5.132 5.132 0 011.167-1.097c.153 0-.152.174.897.139a4.182 4.182 0 002.86-1.393 6.15 6.15 0 001.302-1.445c.135-.348-.186-1.045.118-1.045.305 0 .88-.731 1.015-1.08.136-.348 1.015-1.253.694-1.74-.322-.488-.61-.506-.761-.488-.153.017.135-.348.135-.348s.287-.366.135-.523a.436.436 0 00-.304-.156l.287-.366a6.138 6.138 0 00-.947-1.532c-.778-.836-1.083-1.01-1.083-1.184 0-.174 1.878-1.985 1.692-2.334-.186-.348-1.353-.47-1.81-.452-.6.059-1.204.024-1.793-.105-.187-.313-1.388-.505-.948-.522z"/></g><g fill-rule="nonzero"><path d="M.959 9.106L.4 10.17c0 .522.17.696.322.679.152-.018.626.853.321.853-.304 0 0 .487-.592.487s-.287.54 0 .523c.288-.018.592 0 .61.156v.697c0 .174.168.87.625.853.284-.002.557.11.761.314 0 0-.44.54-.27.713.169.175.456.157.456.331 0 .174-.304 0-.287.366.017.366.338 1.375 0 1.393-.338.017-.152-.348-.457-.331-.304.017-.287.192-.287.366s-.559 1.062 0 1.218c.558.157.76.488.76.662 0 .174.627.853.779.836.152-.017.288-.192.592-.366.305.163.457.331.457.505s0 .697.474.68c.473-.018.456.156.625.678.267.382.638.673 1.066.836.61.157 1.692.105 1.692.453 0 .348 1.201.122 1.201.296s.152 0 .592-.366c.61.157 1.05.14 1.506.279.457.14.321.505.321.679.07.327.235.625.474.853.382.178.82.178 1.201 0 .288-.192.88-.557 1.912-1.132.44-.191.592-.191.592 0 0 .192.186 1.045.761.488.27-.213.514-.459.728-.732.294.347.508.758.626 1.202 0 .348.321.853.186 1.045-.136.191-1.015.905-1.455 1.27-.44.366-.423.889 0 .871.312.017.622-.055.896-.209.305 0 .457.331.474.68.017.348-.288.54-.135.696a3.8 3.8 0 001.691 1.15c.61.156.745 0 .728-.558v-.522h.592l.135-.523.153.174h1.2l.457.331.593-.191s.27-.888.88-.383c.608.504.744-.21.744 0 0 .208-.119 1.044.626 1.201a7.81 7.81 0 002.097 0l.322.679a.966.966 0 010 .697c-.278.13-.526.32-.728.557-.287.365-.558 1.062-.27 1.062.287 0 .913.313 1.048.14.136-.175 1.32-.75 1.455-1.098a.606.606 0 000-.696c-.473-.854-.626-1.202-.626-1.202s1.794.105 1.929-.26a5.132 5.132 0 011.167-1.098c.153 0-.152.174.897.14a4.204 4.204 0 002.622-1.55 6.15 6.15 0 001.303-1.445c.135-.349-.186-1.045.118-1.045.305 0 .88-.731 1.015-1.08.136-.348 1.015-1.253.694-1.74-.322-.488-.61-.506-.761-.488-.153.017.135-.349.135-.349s.287-.365.135-.522a.436.436 0 00-.304-.157l.287-.365a6.138 6.138 0 00-.947-1.533c-.778-.835-1.083-1.01-1.083-1.184 0-.174 1.878-1.985 1.692-2.333-.186-.348-1.353-.47-1.81-.453-.6.06-1.204.024-1.793-.104-.305-.157-.762-.488-.61-.505.153-.017.136-.522.576-.54.44-.017 1.167-.748 1.32-.923.152-.174.27-.713.727-.73.456-.018.321 1.026.338 1.375.017.348-.27.888.457.33a23.859 23.859 0 002.774-2.385 3.91 3.91 0 00.575-.888c.262.186.593.238.897.14.44-.192.27-.889.27-.889s-.152.174.728-.557c.88-.731 1.15-1.27.981-1.95v-.696a.56.56 0 00.462-.04.59.59 0 00.283-.378c.287-.366 1.116-2.664.812-2.647-.52.1-1.018.295-1.472.575-.313.24-.661.429-1.032.557a.516.516 0 01-.457-.505c0-.348-.169-.87-.473-.853-.305.017-1.337.226-1.692-.105a1.634 1.634 0 01-.322-1.027c0-.348-.49-1.202-.93-1.184A7.52 7.52 0 0036.4 0c-.477.081-.93.278-1.32.575 0 0-1.031.383-.727.557.305.174.61.156.61.505 0 .348-.711 1.08-.711 1.253 0 .175.152 0-.27.714a1.67 1.67 0 01-1.32.575l-.17-.522a3.082 3.082 0 00-.422.713 2.764 2.764 0 00-.271.714c0 .174-.27.888.321.853.592-.034 1.489-.226 1.794-.243a.993.993 0 01.609.156l-.576.697c-.575.54-.88.731-1.032.731-.152 0-.44.366-.727.557-.288.192-.305 0-.592.192a2.925 2.925 0 00-.575.54c-.24.095-.505.095-.745 0a1.568 1.568 0 00-.761-.488c-.575.714-.71 1.08-.406 1.236.305.157.744.14.457.505l-.694.766c-.152.175.17.523-.744.384a7.893 7.893 0 00-1.946-.088c-.744 0-.135.523-.727.558-.592.034-.744.383-1.489 0-.744-.383-2.098-.436-2.267-.784-.169-.348-.372-.209-1.133-.209s-1.692.244-1.946-.261a9.593 9.593 0 00-1.235-1.48 13.719 13.719 0 00-2.876-.923c.215-.38.353-.8.406-1.236 0-.348-.186-1.393-.642-1.376-.457.018-.745-.139-.762-.313-.017-.174-.169-.522-.169-.697 0-.174-.152-.174-.457-.156-1.167.748-1.691 1.114-1.691 1.288 0 .174 0 .523-.288.54-.288.017-.897 0-.897-.14 0-.139-.152-.173-.304-.33a1.05 1.05 0 01-.44.191l-1.049 1.41H7.167s-.609-.522-.287.157c.166.389.166.831 0 1.22a1.553 1.553 0 01-.575.887c-.288.192-1.05-.139-1.185.227-.135.365-.44.191-.896 0-.153 0-.288.191-.592.365-.305.174-1.185.227-1.202 0-.016-.226-.27-.243-.625-.226-.39-.33-.694-.313-.846-.488z" fill="url(#b)" transform="translate(0 1.203)"/><path d="M.959 9.106L.4 10.17c0 .522.17.696.322.679.152-.018.626.853.321.853-.304 0 0 .487-.592.487s-.287.54 0 .523c.288-.018.592 0 .61.156v.697c0 .174.168.87.625.853.284-.002.557.11.761.314 0 0-.44.54-.27.713.169.175.456.157.456.331 0 .174-.304 0-.287.366.017.366.338 1.375 0 1.393-.338.017-.152-.348-.457-.331-.304.017-.287.192-.287.366s-.559 1.062 0 1.218c.558.157.76.488.76.662 0 .174.627.853.779.836.152-.017.288-.192.592-.366.305.163.457.331.457.505s0 .697.474.68c.473-.018.456.156.625.678.267.382.638.673 1.066.836.61.157 1.692.105 1.692.453 0 .348 1.201.122 1.201.296s.152 0 .592-.366c.61.157 1.05.14 1.506.279.457.14.321.505.321.679.07.327.235.625.474.853.382.178.82.178 1.201 0 .288-.192.88-.557 1.912-1.132.44-.191.592-.191.592 0 0 .192.186 1.045.761.488.27-.213.514-.459.728-.732.294.347.508.758.626 1.202 0 .348.321.853.186 1.045-.136.191-1.015.905-1.455 1.27-.44.366-.423.889 0 .871.312.017.622-.055.896-.209.305 0 .457.331.474.68.017.348-.288.54-.135.696a3.8 3.8 0 001.691 1.15c.61.156.745 0 .728-.558v-.522h.592l.135-.523.153.174h1.2l.457.331.593-.191s.27-.888.88-.383c.608.504.744-.21.744 0 0 .208-.119 1.044.626 1.201a7.81 7.81 0 002.097 0l.322.679a.966.966 0 010 .697c-.278.13-.526.32-.728.557-.287.365-.558 1.062-.27 1.062.287 0 .913.313 1.048.14.136-.175 1.32-.75 1.455-1.098a.606.606 0 000-.696c-.473-.854-.626-1.202-.626-1.202s1.794.105 1.929-.26a5.132 5.132 0 011.167-1.098c.153 0-.152.174.897.14 1.049-.035.897 0 1.336-.401.44-.4.44-.54-.186-1.045-.626-.505-.304-.156-1.2-.122-.897.035-.627-1.027-.796-1.358-.17-.33-.423-1.288-.27-1.288.152 0-.914-.314-.627-.68.288-.365 1.032-.208.88-.557-.152-.348.423-1.062.27-1.062a2.03 2.03 0 00.999-1.74c0-1.394-.474-.68-.626-.854-.152-.174.727-.905 0-1.741-.152-.174.88-.732-.49-1.376-.762-.313.744 0 .422-1.062-.152-.348 1.455-1.271 1.878-2.159.423-.888-.643-1.55-.643-1.741a2.518 2.518 0 01-.186-1.045c0-.174.305 0 .745.14.44.139.744.139.744 0 0-.14.88-.384 1.32-.575.44-.192.744-.383.727-.557-.017-.174-.49-.662-.49-.662s.152-.174-.17-.522c-.321-.349-.609-.157-.913-.314-.762-.313-.457-.33-.474-.679-.017-.348.372-.226.372-.366 0-.139.897-.208 1.032-.557.135-.348-1.049-.139-.761-.313.287-.174.744-.21.744-.383 0-.523-.304-.157-.169-.697 0-.174 0-.174-.152-.348-.153-.174.727-.731.727-.905 0-.174.288-.54.423-.714.135-.174.744.14.897 0 .152-.14.896 0 1.032-.21.135-.208-1.032.21-1.05 0 0-.696-1.522-.974-1.826-1.148-.305-.174.253-1.237 0-1.22-.254.018-.728-.33-1.032-.33-.193.134-.346.32-.44.54-.28.047-.54.18-.744.383-.44.54-.694 1.602-1.27 2.49-.135.348-1.048-.314-1.336 0-.287.313.474 1.027.339 1.375-.136.349-.119 1.22-.254 1.41a6.378 6.378 0 01-1.878 1.986 1.568 1.568 0 00-.761-.488c-.575.714-.71 1.08-.406 1.236.304.157.744.14.457.505l-.576.714c-.152.174.17.523-.744.383a7.893 7.893 0 00-1.929-.087c-.744 0-.135.523-.727.557-.592.035-.744.383-1.489 0-.744-.383-2.114-.296-2.284-.557-.169-.261-.456-.33-1.2-.296-.745.035-1.692.244-1.946-.261a9.562 9.562 0 00-1.286-1.428 13.719 13.719 0 00-2.876-.923c.214-.38.352-.8.406-1.236 0-.348-.186-1.393-.643-1.375-.456.017-.744-.14-.761-.314-.017-.174-.17-.522-.17-.696 0-.174-.151-.174-.456-.157-1.167.749-1.692 1.114-1.692 1.288 0 .175 0 .523-.287.54-.288.018-.897 0-.897-.14 0-.138-.152-.173-.304-.33a1.04 1.04 0 01-.44.105L7.895 6.477 6.88 6.6s-.61-.505-.288.192c.166.388.166.83 0 1.218a1.553 1.553 0 01-.575.889c-.288.191-1.049-.14-1.184.226-.136.366-.44.191-.897 0-.152 0-.288.191-.592.366-.305.174-1.184.226-1.201 0-.017-.227-.338-.244-.592-.227a.795.795 0 01-.592-.157z" fill="url(#c)" transform="translate(0 1.203)"/><path d="M21.26 28.312l.152.174h1.2l.458.33.592-.19s.27-.889.88-.384c.608.505.744-.209.744 0 0 .21-.119 1.045.626 1.202a7.81 7.81 0 002.097 0l.322.679a.966.966 0 010 .696c-.278.131-.526.32-.728.557-.287.366-.558 1.062-.27 1.062.287 0 .913.314 1.049.14.135-.174 1.32-.749 1.454-1.097a.606.606 0 000-.697c-.473-.853-.625-1.201-.625-1.201s1.793.104 1.928-.261a5.132 5.132 0 011.167-1.097c.153 0-.152.174.897.14 1.049-.036.897 0 1.336-.401.44-.4.44-.54-.186-1.045-.626-.505-.304-.157-1.2-.122-.897.035-.627-1.027-.796-1.358-.169-.331-.474-1.027-.321-1.027.152 0-.914-.314-.626-.68.287-.365 1.032-.208.88-.557-.153-.348.422-1.062.27-1.062a2.03 2.03 0 00.998-1.741c0-1.393-.473-.68-.626-.853-.152-.174.373-2.804 0-1.741-.71 1.427.49 1.375-.88.73-.76-.313.305.332 0-.696 0 0-.625-1.027-1.217-.992-.305 0-.423 1.062-.694 1.741-.288.366.321.853 0 1.393s-.71 1.08-1.15 1.62c-.44.54-1.354-.297-.914-.836l-1.15 1.445a9.104 9.104 0 01-1.134 2.141c-.44.54.186 1.393-.558 1.585-1.032.383 0 .174-.727.905-.44.54-.914-.661-1.49 0-.151.175-1.15 1.62-1.166 1.097-.017-.522-.305-.052-.593.4z" fill="url(#d)" transform="translate(0 1.203)"/><path d="M39.412 26.52c-.31.21-.664.34-1.032.383a2.6 2.6 0 00-.559 1.41c0 .697.322 1.028.626 1.028.305 0 .61.505.745-.383s.101-1.393.406-1.585c.304-.191.27-.522-.186-.853z" fill="#0F6BCF"/><path d="M13.528 14.522s-.609-.157-.592.365v1.915c0 .523 0 .871.322 1.028.32.157.456.33.76.661.305.331-.27.714 0 .871.271.157.322.68.762.662h1.201l.914.313s.609.157.609.331c0 .174 1.184-.226 1.793 0s.744 0 .744-.383-.321-1.027 0-1.045c.322-.017.474.68.914.662.44-.018 1.032-.383 1.049 0 .017.383-.136.348.457.33.592-.017.456.332.744-.382.287-.714.118-1.22.558-1.063a8.4 8.4 0 001.218.993c.61.33.745 0 1.692.279.947.278 1.201 0 1.201.296s0 1.393.338 1.375a2.86 2.86 0 001.303-1.445c0-.348.102-1.741.39-1.741.287 0 0 .522 0-.523V15.41c0-.349 1.031-.732.422-1.063a2.682 2.682 0 00-1.455-.417s-.896 0-.88.383c.017.383.474 1.027-.27 1.062a1.159 1.159 0 01-1.218-.644l-.288-.801c-.304 0-.44.365-.423.713 0 .697-.863 1.08-.88.732-.016-.348-.913-.662-.913-.662l.88-.731h-.897c-.358.081-.705.21-1.032.383 0 0-.27.888-.744 0a3.75 3.75 0 00-1.54-1.323s0-.697-.473-.68h-.745a2.01 2.01 0 01-1.472.75h-1.336c-.144.411-.482.72-.897.818a4.694 4.694 0 00-1.184.574h-1.049l.017.018z" fill="url(#e)" transform="translate(0 1.203)"/><path d="M33.372 13.72c.305 0 0 .175-.744.384-.305 0-.44.365-.423.714.017.348-.119.87 0 1.218.118.349-.744.383 0 .697.744.313.761.487.474.853v2.264l.76.661-.727.557c-.304 0-.44.366-.423.888 0 .871-.575.54-.575.54v.523s-1.32.748-.71 1.08c.609.33.457.504.473.678.017.174-.27.888.322 1.028.592.139-.27.888-.27.888s-2.082.26-1.93.609c.153.348-1.031.383-1.014 1.08 0 .348.304.33 1.048 0 0 1.218.796 1.358 1.083 1.01a5.132 5.132 0 011.167-1.098c.153 0-.152.175.897.14a4.182 4.182 0 002.86-1.393 6.15 6.15 0 001.302-1.445c.135-.349-.186-1.045.118-1.045.305 0 .88-.731 1.015-1.08.136-.348 1.015-1.253.694-1.74-.322-.488-.61-.506-.761-.488-.153.017.135-.349.135-.349s.287-.365.135-.522a.436.436 0 00-.304-.157l.287-.365a6.138 6.138 0 00-.947-1.533c-.778-.835-1.083-1.01-1.083-1.184 0-.174 1.878-1.985 1.692-2.333-.186-.348-1.353-.47-1.81-.453-.6.06-1.204.024-1.793-.104-.187-.313-1.388-.505-.948-.522z" fill="url(#f)" transform="translate(0 1.203)"/></g><g><path d="M30.197 19.248C30.85 9.553 33.39 3.94 37.821 2.406" stroke="url(#g)"/><circle fill="#F0FFFD" cx="38.191" cy="2.105" r="1"/><path d="M29.48 20.362c-4.996-9.987-11.767-13.316-20.313-9.987" stroke="url(#h)"/><circle fill="#F0FFFD" cx="9.178" cy="10.526" r="1"/><path d="M29.48 20.953c-3.372.542-5.205 3.128-5.5 7.755" stroke="url(#i)"/><circle fill="#F0FFFD" cx="23.98" cy="28.571" r="1"/><ellipse fill="#F0FFFD" opacity=".18" cx="9.474" cy="9.624" rx="9.474" ry="9.624"/><use stroke="#F0FFFD" mask="url(#j)" stroke-width="2.4" stroke-dasharray="4" xlink:href="#a"/><ellipse fill="#F0FFFD" cx="29.605" cy="20.451" rx="1.776" ry="1.805"/></g></g></svg>