<svg width="34" height="34" xmlns="http://www.w3.org/2000/svg"><path d="M23.38 12.521l.978-.699A8.992 8.992 0 0017.024 8c-.48 0-.967.039-1.445.117a8.844 8.844 0 00-2.72.894l-.749-.819-2.388 4.641 4.705-2.103-.723-.792a7.768 7.768 0 012.063-.63 7.682 7.682 0 011.254-.102 7.794 7.794 0 016.358 3.315zm.921.294l-.656 5.109 1.143-.219a7.796 7.796 0 01-6.546 7.095l-.048.009.188 1.191.05-.009a8.998 8.998 0 007.574-8.52l.994-.189-2.699-4.467zM12.543 23.489a7.817 7.817 0 01-3.244-5.19 7.874 7.874 0 01.52-4.311l-1.106-.471A9.038 9.038 0 008 17.051c0 .477.039.96.113 1.437a9.02 9.02 0 004.024 6.177l-.32.921 5.189-.087-4.066-3.159-.397 1.149z"  fill-rule="nonzero"/></svg>